<?xml version="1.0" standalone="no"?>
<!DOCTYPE svg PUBLIC "-//W3C//DTD SVG 20010904//EN"
 "http://www.w3.org/TR/2001/REC-SVG-20010904/DTD/svg10.dtd">
<svg version="1.0" xmlns="http://www.w3.org/2000/svg"
 width="512.000000pt" height="512.000000pt" viewBox="0 0 512.000000 512.000000"
 preserveAspectRatio="xMidYMid meet">
<metadata>
Created by potrace 1.15, written by Peter Selinger 2001-2017
</metadata>
<g transform="translate(0.000000,512.000000) scale(0.100000,-0.100000)"
fill="#000000" stroke="none">
<path d="M0 2560 l0 -2560 2560 0 2560 0 0 2560 0 2560 -2560 0 -2560 0 0
-2560z m1070 2025 l0 -105 1280 0 1280 0 0 105 0 105 105 0 105 0 0 -424 0
-425 268 -3 267 -3 65 -31 c138 -66 231 -192 250 -340 12 -90 12 -1718 0
-1808 -19 -148 -112 -274 -250 -340 l-65 -31 -267 -3 -268 -3 0 -244 c0 -214
-2 -251 -20 -306 -37 -120 -117 -211 -236 -266 l-59 -28 -1180 0 -1180 0 -68
33 c-116 58 -198 159 -232 287 -13 52 -15 288 -15 1997 l0 1938 110 0 110 0 0
-105z"/>
<path d="M3840 2560 l0 -850 130 0 c149 0 178 8 233 65 68 70 67 62 67 790 0
721 0 722 -62 782 -55 53 -92 63 -238 63 l-130 0 0 -850z"/>
</g>
</svg>
